<svg width="19" height="23" viewBox="0 0 19 23" fill="none" xmlns="http://www.w3.org/2000/svg">
<path d="M15.4329 12.3007C15.4437 11.466 15.6654 10.6476 16.0774 9.92169C16.4894 9.19573 17.0784 8.58579 17.7895 8.14862C17.3378 7.50346 16.7418 6.97252 16.049 6.59797C15.3562 6.22341 14.5855 6.01557 13.7983 5.99094C12.1191 5.81468 10.4911 6.99577 9.63543 6.99577C8.76316 6.99577 7.44566 6.00844 6.02693 6.03763C5.10926 6.06728 4.21491 6.33413 3.43103 6.81219C2.64716 7.29025 2.00048 7.96321 1.55401 8.7655C-0.379987 12.1139 1.0626 17.035 2.91521 19.7416C3.84211 21.0669 4.92539 22.5474 6.34284 22.4949C7.7299 22.4374 8.24794 21.6104 9.92224 21.6104C11.581 21.6104 12.067 22.4949 13.5132 22.4615C15.0016 22.4373 15.9394 21.1303 16.8338 19.7924C17.4997 18.848 18.0122 17.8043 18.3522 16.6999C17.4875 16.3341 16.7495 15.7219 16.2304 14.9396C15.7113 14.1574 15.4339 13.2395 15.4329 12.3007Z" fill="white"/>
<path d="M12.7013 4.2109C13.5129 3.23669 13.9127 1.98451 13.8158 0.720276C12.576 0.850496 11.4308 1.44306 10.6083 2.37989C10.2061 2.83755 9.89813 3.36999 9.70189 3.94676C9.50564 4.52353 9.425 5.13332 9.46456 5.74128C10.0847 5.74766 10.6982 5.61325 11.2589 5.34816C11.8195 5.08307 12.3127 4.69422 12.7013 4.2109Z" fill="white"/>
</svg>
