<svg width="24" height="26" viewBox="0 0 24 26" fill="none" xmlns="http://www.w3.org/2000/svg">
<path fill-rule="evenodd" clip-rule="evenodd" d="M1.39113 0.533641C1.10304 0.845361 0.936646 1.32167 0.936646 1.94511V24.0573C0.936646 24.6808 1.10304 25.1571 1.40107 25.4563L1.47806 25.5237L13.8163 13.1346V12.8578L1.46812 0.466309L1.39113 0.533641Z" fill="url(#paint0_linear_202_158)"/>
<path fill-rule="evenodd" clip-rule="evenodd" d="M17.9215 17.2768L13.8062 13.1446V12.8554L17.9215 8.72319L18.0109 8.77805L22.8786 11.5561C24.2719 12.3441 24.2719 13.6459 22.8786 14.4439L18.0109 17.2219L17.9215 17.2768Z" fill="url(#paint1_linear_202_158)"/>
<path fill-rule="evenodd" clip-rule="evenodd" d="M18.0109 17.2219L13.8062 13L1.39105 25.4663C1.84554 25.9551 2.60799 26.01 3.45984 25.5337L18.0109 17.2219Z" fill="url(#paint2_linear_202_158)"/>
<path fill-rule="evenodd" clip-rule="evenodd" d="M18.0109 8.77805L3.45984 0.478801C2.60799 -0.00997704 1.84306 0.0573549 1.39105 0.546133L13.8062 13L18.0109 8.77805Z" fill="url(#paint3_linear_202_158)"/>
<path opacity="0.2" fill-rule="evenodd" clip-rule="evenodd" d="M17.9215 17.1322L3.46974 25.3766C2.66258 25.8429 1.94235 25.8105 1.47793 25.3866L1.40094 25.4639L1.47793 25.5312C1.94235 25.9527 2.66258 25.9876 3.46974 25.5212L18.0208 17.222L17.9215 17.1322Z" fill="black"/>
<path opacity="0.12" fill-rule="evenodd" clip-rule="evenodd" d="M22.8787 14.2993L17.9091 17.1322L17.9985 17.2219L22.8663 14.4439C23.5641 14.0449 23.9069 13.5212 23.9069 13C23.8646 13.4788 23.5095 13.9327 22.8787 14.2993Z" fill="black"/>
<path opacity="0.25" fill-rule="evenodd" clip-rule="evenodd" d="M3.45992 0.623478L22.8787 11.7008C23.5095 12.0574 23.8646 12.5237 23.9193 13C23.9193 12.4788 23.5766 11.9551 22.8787 11.5561L3.45992 0.478839C2.06665 -0.32166 0.936646 0.34667 0.936646 1.94517V2.08981C0.936646 0.488814 2.06665 -0.167046 3.45992 0.623478Z" fill="white"/>
<defs>
<linearGradient id="paint0_linear_202_158" x1="12.7095" y1="1.70654" x2="-7.06486" y2="6.95384" gradientUnits="userSpaceOnUse">
<stop stop-color="#00A0FF"/>
<stop offset="0.00657" stop-color="#00A1FF"/>
<stop offset="0.2601" stop-color="#00BEFF"/>
<stop offset="0.5122" stop-color="#00D2FF"/>
<stop offset="0.7604" stop-color="#00DFFF"/>
<stop offset="1" stop-color="#00E3FF"/>
</linearGradient>
<linearGradient id="paint1_linear_202_158" x1="24.6956" y1="13" x2="0.597831" y2="13" gradientUnits="userSpaceOnUse">
<stop stop-color="#FFE000"/>
<stop offset="0.4087" stop-color="#FFBD00"/>
<stop offset="0.7754" stop-color="#FFA500"/>
<stop offset="1" stop-color="#FF9C00"/>
</linearGradient>
<linearGradient id="paint2_linear_202_158" x1="15.7246" y1="15.2973" x2="-0.238214" y2="42.0538" gradientUnits="userSpaceOnUse">
<stop stop-color="#FF3A44"/>
<stop offset="1" stop-color="#C31162"/>
</linearGradient>
<linearGradient id="paint3_linear_202_158" x1="-1.73523" y1="-6.82121" x2="5.38643" y2="5.12868" gradientUnits="userSpaceOnUse">
<stop stop-color="#32A071"/>
<stop offset="0.0685" stop-color="#2DA771"/>
<stop offset="0.4762" stop-color="#15CF74"/>
<stop offset="0.8009" stop-color="#06E775"/>
<stop offset="1" stop-color="#00F076"/>
</linearGradient>
</defs>
</svg>
