<svg width="27" height="26" viewBox="0 0 27 26" fill="none" xmlns="http://www.w3.org/2000/svg">
<path fill-rule="evenodd" clip-rule="evenodd" d="M18.8875 0.333336H7.81818C2.59952 0.333336 0.690186 2.24267 0.690186 7.46134V18.5387C0.690186 23.7573 2.59952 25.6667 7.81818 25.6667H18.8875C24.1062 25.6667 26.0182 23.7573 26.0182 18.5387V7.46134C26.0235 2.24267 24.1142 0.333336 18.8875 0.333336Z" fill="#C8102E"/>
<path d="M5.70624 13H6.37824V16.3147H5.70624V14.968H4.18891V16.3147H3.51691V13H4.18891V14.3333H5.70624V13ZM9.49291 14.896C9.49291 15.4293 9.22624 15.7227 8.74091 15.7227C8.25557 15.7227 7.98357 15.4293 7.98357 14.8667V13H7.31157V14.8933C7.31157 15.824 7.82891 16.3573 8.73024 16.3573C9.63157 16.3573 10.1649 15.824 10.1649 14.864V13H9.49291V14.896ZM17.2582 15.2773L16.5062 13H15.9542L15.2076 15.28L14.4742 13H13.7596L14.9142 16.3147H15.4716L16.2209 14.1387L16.9729 16.3147H17.5356L18.6902 13H17.9916L17.2582 15.2773ZM19.8929 14.8853H21.1169V14.2853H19.8929V13.608H21.6689V13H19.2316V16.3067H21.7329V15.7093H19.8929V14.8853ZM22.5329 16.3067H23.1969V13H22.5329V16.3067ZM11.4929 15.6213L11.1916 16.3093H10.5062L11.9542 13H12.5462L13.9996 16.3093H13.3062L13.0209 15.624L11.4929 15.6213ZM11.7436 15.024H12.7542L12.2476 13.84L11.7436 15.024Z" fill="white"/>
<path d="M13.3569 8.784C12.2389 8.78329 11.167 8.33888 10.3765 7.54838C9.58599 6.75788 9.14158 5.68594 9.14087 4.568H9.73554C9.73554 5.52844 10.1171 6.44954 10.7962 7.12867C11.4753 7.8078 12.3964 8.18933 13.3569 8.18933C14.3173 8.18933 15.2384 7.8078 15.9175 7.12867C16.5967 6.44954 16.9782 5.52844 16.9782 4.568H17.5729C17.5722 5.68594 17.1278 6.75788 16.3373 7.54838C15.5468 8.33888 14.4748 8.78329 13.3569 8.784V8.784Z" fill="white"/>
</svg>
